<?xml version="1.0" encoding="utf-8"?>
<!-- Generator: Adobe Illustrator 24.3.0, SVG Export Plug-In . SVG Version: 6.00 Build 0)  -->
<svg version="1.1" id="Layer_1" xmlns="http://www.w3.org/2000/svg" xmlns:xlink="http://www.w3.org/1999/xlink" x="0px" y="0px"
	 viewBox="0 0 25 23" style="enable-background:new 0 0 25 23;" xml:space="preserve">
<style type="text/css">
	.st0{fill:#4D4D4D;}
	.st1{fill:#FFFFFF;}
</style>
<g>
	<path class="st0" d="M7,8.5l-2.7,2.8l7.4,7.8L25,5.2l-2.7-2.8L11.7,13.4L7,8.5z"/>
	<path class="st1" d="M22.3,2.3L25,5.2L11.7,19.1l-7.4-7.8L7,8.5l4.7,5L22.3,2.3 M22.3-0.5L20.9,1l-9.2,9.6L8.4,7.1L7,5.7L5.5,7.1
		L2.8,10l-1.3,1.3l1.3,1.3l7.4,7.8l1.4,1.5l1.4-1.5L26.4,6.5l1.3-1.3l-1.3-1.3L23.7,1L22.3-0.5L22.3-0.5z"/>
</g>
</svg>
